<svg width="834" height="1000" viewBox="0 0 834 1000" fill="none" xmlns="http://www.w3.org/2000/svg">
<path d="M542 875C542 941.583 484 1000 418.208 1000C352.417 1000 292 941.583 292 875H542ZM547.708 164.375C520.875 148.792 504.292 119.792 504.333 88.5417V88.4167C504.375 39.5833 465.25 0 417 0C368.75 0 329.625 39.5833 329.625 88.4167V88.5417C329.667 119.833 313.125 148.792 286.25 164.375C101.468 271.61 193.135 615.656 28.512 706.612C12.5144 715.451 0.333344 731.159 0.333344 749.436V749.436C0.333344 772.759 19.2407 791.667 42.564 791.667H791.436C814.759 791.667 833.667 772.759 833.667 749.436V749.436C833.667 731.159 821.486 715.451 805.488 706.612C640.869 615.652 732.569 271.57 547.708 164.375ZM417 41.6667C440 41.6667 458.667 60.375 458.667 83.3333C458.667 106.333 440 125 417 125C394 125 375.333 106.333 375.333 83.3333C375.333 60.375 394 41.6667 417 41.6667ZM167.624 708.333C159.493 708.333 154.668 699.076 158.932 692.153C200.364 624.898 216.217 540.131 230.042 466.042C248.667 366.458 266.25 272.375 328.125 236.5C385.625 203.125 451.292 204.833 505.917 236.5C567.792 272.375 585.375 366.458 604 466.042C617.825 540.131 633.678 624.898 675.109 692.153C679.374 699.076 674.548 708.333 666.418 708.333H167.624Z" fill="black"/>
</svg>
